<svg width="190" height="40" viewBox="0 0 190 40" fill="none" xmlns="http://www.w3.org/2000/svg">
<path d="M64.1329 7.62256C65.3361 7.62256 66.4689 7.84822 67.5335 8.30196C68.5982 8.75571 69.5267 9.37688 70.3191 10.1655C71.1115 10.9565 71.7313 11.8761 72.1859 12.9292C72.638 13.9823 72.8665 15.1082 72.8665 16.3092C72.8665 17.4254 72.6769 18.4688 72.2977 19.4369C71.9185 20.4051 71.4056 21.264 70.7615 22.0114C70.1173 22.7587 69.3638 23.3799 68.4985 23.8749C67.6332 24.3699 66.7144 24.7072 65.7445 24.8867C64.7747 25.0663 63.7781 25.0809 62.7547 24.9328C61.7314 24.7848 60.7348 24.4281 59.765 23.8579V32.4815H55.397V16.3092C55.397 15.1082 55.623 13.9823 56.0776 12.9292C56.5321 11.8761 57.1544 10.9541 57.9444 10.1655C58.7368 9.37688 59.6629 8.75571 60.7299 8.30196C61.797 7.84822 62.9322 7.62256 64.1329 7.62256ZM68.5009 16.3092C68.5009 15.7196 68.3843 15.1615 68.1533 14.635C67.9224 14.1085 67.6113 13.645 67.2199 13.2446C66.8286 12.8443 66.3668 12.5337 65.8271 12.3129C65.29 12.0921 64.7236 11.9805 64.1354 11.9805C63.5228 11.9805 62.9541 12.0896 62.4266 12.3129C61.8991 12.5337 61.4397 12.8443 61.0508 13.2446C60.6595 13.645 60.3483 14.1085 60.1174 14.635C59.8865 15.1615 59.7698 15.7196 59.7698 16.3092C59.7698 16.9207 59.8865 17.4885 60.1174 18.015C60.3483 18.5416 60.6595 19.0002 61.0508 19.3884C61.4397 19.7791 61.8991 20.0896 62.4266 20.3202C62.9541 20.5531 63.5228 20.6671 64.1354 20.6671C64.726 20.6671 65.29 20.5531 65.8271 20.3202C66.3643 20.0896 66.8286 19.7791 67.2199 19.3884C67.6113 18.9977 67.9224 18.5416 68.1533 18.015C68.3843 17.4885 68.5009 16.9183 68.5009 16.3092Z" fill="#2B2B2B"/>
<path d="M91.6579 20.6987C91.6579 20.951 91.6482 21.2034 91.6263 21.4557C91.6044 21.7081 91.5728 21.9629 91.5315 22.2152H78.8432C79.1373 22.9723 79.5821 23.5886 80.1728 24.0642C80.7635 24.5373 81.4173 24.8431 82.1344 24.9789C82.8514 25.1173 83.5685 25.0736 84.2856 24.8528C85.0026 24.632 85.6346 24.217 86.1839 23.6056H91.1523C90.5616 25.2895 89.6963 26.5901 88.5563 27.5073C87.4163 28.4221 86.1718 29.0117 84.8227 29.2762C83.4713 29.5382 82.1125 29.4921 80.7416 29.133C79.3707 28.7763 78.1626 28.1552 77.1174 27.2695C76.0722 26.3863 75.2773 25.2628 74.728 23.9065C74.1787 22.5476 74.0523 20.9947 74.3488 19.2477C74.6429 17.5006 75.2773 16.0739 76.2472 14.9674C77.2171 13.861 78.3449 13.0675 79.6332 12.5822C80.919 12.0969 82.2705 11.9149 83.6852 12.029C85.0974 12.1455 86.3954 12.5507 87.5767 13.2446C88.7581 13.9386 89.7328 14.914 90.5033 16.1661C91.2714 17.4181 91.6579 18.9298 91.6579 20.6987ZM79.6332 17.8573H86.2471C85.8048 17.3526 85.2919 16.9668 84.7109 16.7048C84.13 16.4427 83.5393 16.3092 82.9389 16.3092C82.3386 16.3092 81.7479 16.4403 81.167 16.7048C80.586 16.9668 80.0756 17.3502 79.6332 17.8573Z" fill="#2B2B2B"/>
<path d="M102.511 11.9805C103.715 11.9805 104.847 12.2061 105.912 12.6599C106.977 13.1136 107.905 13.7348 108.698 14.5234C109.49 15.3144 110.11 16.234 110.564 17.2871C111.016 18.3402 111.245 19.4661 111.245 20.6672C111.245 21.7833 111.055 22.8267 110.676 23.7948C110.297 24.763 109.784 25.622 109.14 26.3693C108.496 27.1167 107.742 27.7378 106.877 28.2328C106.012 28.7278 105.093 29.0651 104.123 29.2446C103.153 29.4242 102.156 29.4388 101.133 29.2908C100.11 29.1427 99.1132 28.7861 98.1434 28.2158V32.4815H93.7778V20.6672C93.7778 19.4661 94.0039 18.3402 94.4584 17.2871C94.913 16.234 95.5352 15.312 96.3252 14.5234C97.1176 13.7348 98.0437 13.1136 99.1108 12.6599C100.175 12.2061 101.308 11.9805 102.511 11.9805ZM106.877 20.6672C106.877 20.0775 106.76 19.5194 106.529 18.9929C106.298 18.4664 105.987 18.0029 105.596 17.6025C105.205 17.2022 104.743 16.8916 104.203 16.6708C103.666 16.45 103.1 16.3384 102.511 16.3384C101.899 16.3384 101.33 16.4476 100.803 16.6708C100.275 16.8916 99.8157 17.2022 99.4268 17.6025C99.0355 18.0029 98.7243 18.4664 98.4934 18.9929C98.2625 19.5194 98.1458 20.0775 98.1458 20.6672C98.1458 21.2786 98.2625 21.8464 98.4934 22.3729C98.7243 22.8995 99.0355 23.3581 99.4268 23.7463C99.8157 24.137 100.275 24.4476 100.803 24.6781C101.33 24.911 101.899 25.0251 102.511 25.0251C103.102 25.0251 103.666 24.911 104.203 24.6781C104.74 24.4476 105.205 24.137 105.596 23.7463C105.987 23.3557 106.298 22.8995 106.529 22.3729C106.763 21.8464 106.877 21.2786 106.877 20.6672Z" fill="#2B2B2B"/>
<path d="M122.035 11.9805C123.238 11.9805 124.371 12.2061 125.435 12.6599C126.5 13.1136 127.429 13.7348 128.221 14.5234C129.011 15.3144 129.633 16.234 130.088 17.2871C130.542 18.3402 130.768 19.4661 130.768 20.6672C130.768 21.7833 130.579 22.8267 130.2 23.7948C129.82 24.763 129.307 25.622 128.663 26.3693C128.019 27.1167 127.266 27.7378 126.4 28.2328C125.535 28.7278 124.616 29.0651 123.646 29.2446C122.677 29.4242 121.68 29.4388 120.657 29.2908C119.633 29.1427 118.637 28.7861 117.667 28.2158V32.4815H113.299V20.6672C113.299 19.4661 113.525 18.3402 113.979 17.2871C114.432 16.234 115.056 15.312 115.846 14.5234C116.639 13.7348 117.565 13.1136 118.632 12.6599C119.699 12.2061 120.832 11.9805 122.035 11.9805ZM126.4 20.6672C126.4 20.0775 126.284 19.5194 126.053 18.9929C125.819 18.4664 125.508 18.0029 125.119 17.6025C124.73 17.2022 124.266 16.8916 123.727 16.6708C123.187 16.45 122.623 16.3384 122.032 16.3384C121.42 16.3384 120.851 16.4476 120.324 16.6708C119.796 16.8916 119.337 17.2022 118.948 17.6025C118.556 18.0029 118.245 18.4664 118.014 18.9929C117.781 19.5194 117.667 20.0775 117.667 20.6672C117.667 21.2786 117.781 21.8464 118.014 22.3729C118.245 22.8995 118.556 23.3581 118.948 23.7463C119.339 24.137 119.796 24.4476 120.324 24.6781C120.849 24.911 121.42 25.0251 122.032 25.0251C122.623 25.0251 123.187 24.911 123.727 24.6781C124.264 24.4476 124.728 24.137 125.119 23.7463C125.511 23.3557 125.819 22.8995 126.053 22.3729C126.286 21.8464 126.4 21.2786 126.4 20.6672Z" fill="#2B2B2B"/>
<path d="M150.197 20.6987C150.197 20.951 150.185 21.2034 150.165 21.4557C150.143 21.7081 150.112 21.9629 150.071 22.2152H137.382C137.679 22.9723 138.121 23.5886 138.712 24.0642C139.303 24.5373 139.956 24.8431 140.673 24.9789C141.39 25.1173 142.108 25.0736 142.825 24.8528C143.542 24.632 144.174 24.217 144.723 23.6056H149.691C149.101 25.2895 148.235 26.5901 147.095 27.5073C145.955 28.4221 144.711 29.0117 143.362 29.2762C142.013 29.5382 140.652 29.4921 139.281 29.133C137.91 28.7739 136.702 28.1552 135.656 27.2695C134.614 26.3863 133.816 25.2628 133.267 23.9065C132.718 22.5476 132.591 20.9947 132.888 19.2477C133.182 17.5006 133.816 16.0739 134.786 14.9674C135.756 13.861 136.884 13.0675 138.172 12.5822C139.458 12.0969 140.81 11.9149 142.222 12.029C143.636 12.1455 144.932 12.5507 146.113 13.2446C147.295 13.9386 148.269 14.914 149.04 16.1661C149.81 17.4181 150.197 18.9298 150.197 20.6987ZM138.172 17.8573H144.786C144.344 17.3526 143.831 16.9668 143.252 16.7048C142.671 16.4427 142.081 16.3092 141.48 16.3092C140.878 16.3092 140.289 16.4403 139.708 16.7048C139.128 16.9668 138.615 17.3502 138.172 17.8573Z" fill="#2B2B2B"/>
<path d="M152.38 29.417V21.0458V11.9175H156.682V13.5286C157.336 13.1501 158.036 12.8541 158.787 12.6454C159.536 12.4343 160.311 12.33 161.113 12.33H163.517V16.6903H161.113C160.501 16.6903 159.932 16.8068 159.405 17.0373C158.877 17.2702 158.418 17.5808 158.029 17.969C157.638 18.3597 157.326 18.8232 157.095 19.3594C156.862 19.8956 156.748 20.461 156.748 21.0506V29.4219H152.38V29.417Z" fill="#2B2B2B"/>
<path d="M170.036 22.2152V22.436V29.4169H165.671V16.3408C165.671 15.1397 165.897 14.0138 166.351 12.9607C166.804 11.9077 167.426 10.9856 168.218 10.197C169.011 9.40842 169.937 8.77997 171.004 8.31895C172.069 7.8555 173.204 7.62256 174.404 7.62256H182.603V11.9829H174.404C173.792 11.9829 173.223 12.0994 172.696 12.3299C172.168 12.5628 171.709 12.8734 171.32 13.2616C170.929 13.6523 170.617 14.1157 170.386 14.652C170.153 15.1882 170.039 15.7536 170.039 16.3432V17.7967H179.533V22.2201H170.036V22.2152Z" fill="#2B2B2B"/>
<path d="M189.205 10.527H184.837V7.62256H189.205V10.527ZM189.205 29.4169H184.837V11.9805H189.205V29.4169Z" fill="#2B2B2B"/>
<path d="M44.3646 9.92659C44.2989 9.68152 44.1312 9.48497 43.91 9.37093C43.9513 9.10402 43.944 8.84682 43.8784 8.59932C43.3315 6.52228 40.5581 5.17803 36.0661 4.81406C34.7584 4.7073 33.3486 4.69031 31.8658 4.7534C29.1605 1.25446 23.9466 -0.198982 18.8591 1.13556C13.7692 2.47011 9.94571 6.29662 9.30886 10.6691C7.98656 11.3412 6.76877 12.0473 5.68467 12.7801C1.95353 15.3012 0.19856 17.8344 0.74547 19.9114C0.808669 20.1565 0.927774 20.3822 1.09306 20.5933C0.952081 20.8044 0.901036 21.0616 0.966665 21.3091C1.02743 21.5396 1.17327 21.7313 1.37745 21.8502C1.516 21.9302 1.66914 21.9715 1.82471 21.9715C1.90006 21.9715 1.97784 21.9618 2.05319 21.9424C2.25737 21.889 2.43238 21.7628 2.55149 21.5929C2.86991 21.724 3.22966 21.838 3.62829 21.9399C4.53009 22.9324 6.75905 23.4589 9.99675 23.4589C11.1829 23.4589 12.5052 23.3885 13.9467 23.2429C14.4377 23.5875 15.0551 23.9005 15.8159 24.1407C16.6447 24.4028 17.8018 24.626 19.3307 24.626C20.8037 24.626 22.6243 24.4198 24.8362 23.8398C30.3491 22.3937 33.0642 20.0012 34.0365 17.9703C38.9732 15.8059 41.9654 13.559 42.3689 11.7755C42.6631 11.4965 42.9183 11.2223 43.1298 10.9554C43.2464 11.0112 43.3753 11.0403 43.5041 11.0403C43.5794 11.0403 43.6548 11.0306 43.7301 11.0112C44.2041 10.8875 44.4885 10.3997 44.3646 9.92659Z" fill="#3C3C3B"/>
<path d="M22.6194 0.645435C26.3724 0.645435 29.8313 2.12072 31.8682 4.75341C32.437 4.72915 32.9936 4.71702 33.5381 4.71702C34.4156 4.71702 35.2615 4.74856 36.066 4.81407C40.558 5.17804 43.3314 6.52229 43.8783 8.59933C43.944 8.84683 43.9513 9.10403 43.9099 9.37094C44.1311 9.48499 44.2989 9.68153 44.3645 9.9266C44.4885 10.3998 44.2041 10.885 43.7301 11.0088C43.6547 11.0282 43.5794 11.0379 43.504 11.0379C43.3752 11.0379 43.2464 11.0088 43.1297 10.953C42.9182 11.2199 42.663 11.4941 42.3689 11.7731C41.9654 13.5566 38.9707 15.8035 34.0364 17.9678C33.0617 19.9964 30.349 22.3913 24.8362 23.8374C22.6267 24.4173 20.8061 24.6236 19.3306 24.6236C17.7993 24.6236 16.6447 24.4004 15.8158 24.1383C15.055 23.8981 14.4376 23.5851 13.9466 23.2405C12.5076 23.3837 11.1829 23.4565 9.99669 23.4565C6.75898 23.4565 4.53002 22.9299 3.62823 21.9375C3.22959 21.838 2.86985 21.7216 2.55142 21.593C2.43232 21.7628 2.25731 21.889 2.05313 21.9424C1.97778 21.9618 1.90242 21.9715 1.82464 21.9715C1.66907 21.9715 1.51594 21.9302 1.37739 21.8502C1.17321 21.7313 1.02494 21.5396 0.9666 21.3091C0.900971 21.0591 0.952016 20.8019 1.093 20.5933C0.927709 20.3822 0.811035 20.1565 0.745405 19.9114C0.198496 17.8344 1.95347 15.3012 5.68461 12.7801C6.7687 12.0473 7.98892 11.3412 9.3088 10.6691C9.94321 6.29421 13.7691 2.47012 18.8591 1.13558C20.1182 0.805581 21.3846 0.645435 22.6194 0.645435ZM22.6194 0C21.3068 0 19.9869 0.172278 18.6938 0.511981C13.4969 1.87564 9.53485 5.76039 8.72056 10.2469C7.47118 10.8948 6.32875 11.5669 5.32 12.2487C1.34336 14.9348 -0.503979 17.7155 0.118282 20.0789C0.171758 20.2778 0.24954 20.4695 0.354061 20.6564C0.273848 20.9233 0.266555 21.2072 0.337046 21.4765C0.441567 21.872 0.69436 22.2044 1.04924 22.4107C1.28502 22.549 1.5524 22.6193 1.82221 22.6193C1.95347 22.6193 2.08716 22.6024 2.21598 22.5684C2.391 22.5223 2.55628 22.4446 2.70213 22.3403C2.88686 22.4034 3.08375 22.4641 3.28793 22.5174C4.39147 23.5705 6.64474 24.1019 9.99426 24.1019C11.144 24.1019 12.4128 24.0364 13.774 23.9054C14.3112 24.2523 14.931 24.5362 15.6165 24.7546C16.6982 25.0968 17.9475 25.2715 19.3282 25.2715C21.0443 25.2715 22.9524 24.9997 24.9966 24.4634C31.3091 22.8086 33.6499 20.0813 34.5055 18.4677C37.4394 17.1623 42.1525 14.7091 42.945 12.1153C43.0932 11.9697 43.2318 11.8241 43.3606 11.6785C43.4068 11.6833 43.453 11.6858 43.5016 11.6858C43.6353 11.6858 43.7665 11.6688 43.8929 11.6348C44.7097 11.4213 45.2031 10.5817 44.9868 9.7616C44.9163 9.49712 44.7753 9.2569 44.5784 9.06764C44.5808 8.84926 44.5541 8.63816 44.5006 8.43433C43.8783 6.07097 40.9007 4.55687 36.1147 4.16864C35.3028 4.10312 34.435 4.06915 33.5332 4.06915C33.0884 4.06915 32.629 4.07643 32.1623 4.09342C30.0282 1.52381 26.4866 0 22.6194 0Z" fill="#3C3C3B"/>
<path d="M29.9648 27.9335C29.9697 27.9335 29.9721 27.9335 29.9769 27.9335C30.0329 27.9286 30.0839 27.8971 30.1082 27.8461L30.5384 27.0163L31.4305 26.73C31.484 26.713 31.5253 26.6693 31.5375 26.6135C31.552 26.5601 31.535 26.5019 31.4961 26.4606L30.8374 25.7958L30.8398 24.8616C30.8398 24.8058 30.8107 24.7524 30.7621 24.7233C30.7135 24.6942 30.6551 24.6917 30.6041 24.716L29.7679 25.1358L28.8783 24.8446C28.8248 24.8276 28.7665 24.8398 28.7227 24.8737C28.6789 24.9101 28.6595 24.9659 28.6668 25.0217L28.8078 25.9462L28.256 26.7008C28.222 26.7469 28.2147 26.8052 28.2366 26.8586C28.2584 26.9095 28.3046 26.9483 28.3605 26.9556L29.2842 27.1085L29.8335 27.8655C29.8627 27.9092 29.9113 27.9335 29.9648 27.9335Z" fill="#3C3C3B"/>
<path d="M30.6767 24.7014C30.7059 24.7014 30.7351 24.7086 30.7618 24.7256C30.8104 24.7547 30.8396 24.8081 30.8396 24.8639L30.8371 25.7981L31.4959 26.463C31.5348 26.5018 31.5518 26.56 31.5372 26.6158C31.525 26.6692 31.4837 26.7129 31.4302 26.7323L30.5382 27.0186L30.1079 27.8485C30.0812 27.8994 30.0326 27.931 29.9767 27.9358C29.9718 27.9358 29.9694 27.9358 29.9645 27.9358C29.9135 27.9358 29.8649 27.9115 29.8333 27.8679L29.2839 27.1108L28.3603 26.958C28.3043 26.9482 28.2582 26.9119 28.2363 26.8609C28.2144 26.8099 28.2217 26.7493 28.2557 26.7032L28.8075 25.9485L28.6665 25.0241C28.6568 24.9683 28.6787 24.9125 28.7224 24.8761C28.7516 24.8518 28.7905 24.8372 28.827 24.8372C28.844 24.8372 28.861 24.8397 28.878 24.8445L29.7676 25.1357L30.6038 24.7159C30.6257 24.7062 30.6524 24.7014 30.6767 24.7014ZM30.6767 24.2161C30.5771 24.2161 30.475 24.2403 30.385 24.284L29.7287 24.614L29.0287 24.3859C28.9631 24.3641 28.895 24.3544 28.827 24.3544C28.6763 24.3544 28.528 24.4078 28.4113 24.5048C28.2387 24.6504 28.1536 24.8761 28.1877 25.0969L28.2971 25.8224L27.862 26.4169C27.7283 26.6013 27.7015 26.8342 27.7866 27.0429C27.8741 27.254 28.0589 27.3996 28.2825 27.436L29.0068 27.5549L29.4395 28.1493C29.561 28.3168 29.7579 28.4162 29.9645 28.4162C29.9767 28.4162 30.001 28.4162 30.0131 28.4138C30.2343 28.3968 30.4361 28.2658 30.5382 28.0668L30.876 27.4141L31.5761 27.1885C31.7924 27.1181 31.9528 26.9458 32.0063 26.7274C32.0598 26.5139 31.9966 26.2785 31.8386 26.1208L31.3209 25.5991L31.3233 24.8639C31.3233 24.6358 31.2091 24.4296 31.0146 24.3131C30.9149 24.25 30.7958 24.2161 30.6767 24.2161Z" fill="#3C3C3B"/>
<path d="M25.7914 29.6585L25.4584 28.3604C25.4438 28.307 25.4024 28.2633 25.349 28.2463C25.2955 28.2293 25.2372 28.2415 25.1934 28.2779L24.1822 29.1611L22.8405 29.0762C22.7797 29.0737 22.7311 29.098 22.6971 29.1441C22.6655 29.1902 22.6582 29.2484 22.6801 29.3018L23.2075 30.5345L22.7117 31.7817C22.6898 31.8326 22.6995 31.8933 22.7335 31.937C22.7676 31.9806 22.8186 32.0073 22.8769 32L24.2138 31.8811L25.2493 32.7377C25.2785 32.7619 25.3149 32.7741 25.3538 32.7741C25.3709 32.7741 25.3879 32.7717 25.4049 32.7644C25.4584 32.7474 25.4972 32.7013 25.5094 32.6479L25.8084 31.34L26.9435 30.6218C26.9921 30.5927 27.0189 30.5393 27.0189 30.4835C27.0189 30.4277 26.9873 30.3767 26.9411 30.3476L25.7914 29.6585Z" fill="#3C3C3B"/>
<path d="M25.3001 28.2365C25.3172 28.2365 25.3317 28.2389 25.3487 28.2438C25.4022 28.2608 25.4436 28.3045 25.4581 28.3578L25.7911 29.656L26.9433 30.3451C26.9919 30.3742 27.0211 30.4252 27.0211 30.481C27.0211 30.5368 26.9943 30.5902 26.9457 30.6193L25.8106 31.3375L25.5116 32.6454C25.4995 32.7012 25.4581 32.7448 25.4071 32.7618C25.3901 32.7667 25.3731 32.7715 25.356 32.7715C25.3196 32.7715 25.2831 32.7594 25.2515 32.7351L24.216 31.8786L22.8791 31.9975C22.8743 31.9975 22.867 31.9975 22.8621 31.9975C22.8111 31.9975 22.7649 31.9732 22.7357 31.932C22.7017 31.8859 22.6944 31.8277 22.7139 31.7767L23.2097 30.5295L22.6823 29.2969C22.6604 29.2459 22.6677 29.1853 22.6993 29.1391C22.7309 29.0955 22.7771 29.0712 22.833 29.0712C22.8354 29.0712 22.8403 29.0712 22.8427 29.0712L24.1844 29.1561L25.1956 28.2729C25.2248 28.2511 25.2612 28.2365 25.3001 28.2365ZM25.3001 27.7512C25.1421 27.7512 24.9914 27.807 24.8748 27.9114L24.0143 28.6611L22.8743 28.5883C22.8646 28.5883 22.8451 28.5859 22.8354 28.5859C22.6215 28.5859 22.427 28.6854 22.3055 28.8601C22.1767 29.0421 22.1499 29.2775 22.2399 29.4837L22.6896 30.5344L22.269 31.5947C22.1864 31.801 22.218 32.0412 22.3517 32.2207C22.4732 32.3857 22.6628 32.4804 22.867 32.4804C22.8889 32.4804 22.9107 32.4804 22.9326 32.4779L24.0653 32.376L24.9453 33.104C25.0644 33.201 25.2102 33.252 25.3585 33.252C25.429 33.252 25.497 33.2398 25.5651 33.218C25.779 33.1452 25.9418 32.9657 25.9905 32.7473L26.2457 31.636L27.2107 31.0245C27.3978 30.9056 27.5145 30.6945 27.5121 30.4713C27.5097 30.248 27.3881 30.0394 27.1961 29.9229L26.2141 29.3381L25.9297 28.2317C25.8738 28.0157 25.7085 27.841 25.4946 27.7755C25.4338 27.7634 25.3658 27.7512 25.3001 27.7512Z" fill="#3C3C3B"/>
<path d="M39.1675 31.3936L39.3255 30.0615C39.3328 30.0057 39.3085 29.9498 39.2648 29.9159C39.221 29.8819 39.1627 29.8722 39.1092 29.8916L37.8477 30.3502L36.6274 29.7873C36.5764 29.7654 36.5181 29.7679 36.4694 29.7994C36.4233 29.831 36.3941 29.8843 36.3965 29.9401L36.4427 31.2795L35.5312 32.2647C35.4923 32.3059 35.4802 32.3642 35.4947 32.4175C35.5093 32.4709 35.5531 32.5146 35.6066 32.5292L36.8973 32.898L37.5535 34.0675C37.5803 34.1161 37.6313 34.1476 37.6872 34.15C37.6897 34.15 37.6921 34.15 37.6945 34.15C37.748 34.15 37.7991 34.1233 37.8282 34.0797L38.5793 32.9683L39.8968 32.7063C39.9527 32.6966 39.9964 32.6578 40.0159 32.6044C40.0353 32.551 40.0256 32.4928 39.9915 32.4491L39.1675 31.3936Z" fill="#3C3C3B"/>
<path d="M36.5595 29.7726C36.5813 29.7726 36.6056 29.7775 36.6275 29.7872L37.8477 30.3501L39.1093 29.8915C39.1263 29.8843 39.1457 29.8818 39.1652 29.8818C39.2016 29.8818 39.2357 29.894 39.2648 29.9158C39.3086 29.9498 39.3305 30.0056 39.3256 30.0614L39.1676 31.3935L39.9941 32.449C40.0281 32.4927 40.0378 32.5534 40.0184 32.6043C39.9989 32.6577 39.9527 32.6965 39.8993 32.7062L38.5818 32.9683L37.8307 34.0796C37.8016 34.1233 37.7505 34.15 37.697 34.15C37.6946 34.15 37.6922 34.15 37.6897 34.15C37.6338 34.1475 37.5828 34.116 37.556 34.0675L36.8998 32.8979L35.6091 32.5291C35.5556 32.5145 35.5118 32.4709 35.4972 32.4175C35.4827 32.3641 35.4948 32.3059 35.5337 32.2646L36.4452 31.2795L36.399 29.9401C36.3966 29.8843 36.4233 29.8309 36.472 29.7993C36.4963 29.7799 36.5279 29.7726 36.5595 29.7726ZM36.5595 29.2874C36.4331 29.2874 36.3091 29.3238 36.2021 29.3941C36.0125 29.5203 35.9032 29.729 35.9105 29.9546L35.9518 31.0951L35.1764 31.9322C35.0257 32.0972 34.9673 32.3301 35.0281 32.5461C35.0889 32.7645 35.2566 32.9294 35.4729 32.9925L36.5716 33.308L37.1307 34.3052C37.2425 34.5018 37.4418 34.6255 37.6679 34.6352C37.6752 34.6352 37.6824 34.6352 37.6897 34.6352C37.9134 34.6352 38.1127 34.5285 38.2342 34.3489L38.8735 33.405L39.9941 33.1818C40.2128 33.1381 40.3976 32.9828 40.4753 32.7717C40.5531 32.5631 40.5167 32.3228 40.3781 32.1481L39.6756 31.2503L39.8093 30.1172C39.8361 29.8964 39.7437 29.6732 39.5687 29.5348C39.4544 29.4451 39.311 29.3941 39.1652 29.3941C39.0898 29.3941 39.0169 29.4062 38.944 29.4329L37.8672 29.8236L36.8293 29.3456C36.7466 29.3068 36.6518 29.2874 36.5595 29.2874Z" fill="#3C3C3B"/>
<path d="M32.4511 32.4103C32.4171 32.3642 32.3636 32.34 32.3077 32.3448L31.4254 32.4128L30.7521 31.8401C30.7083 31.8037 30.6524 31.7916 30.5965 31.8086C30.543 31.8256 30.5017 31.8692 30.4896 31.9251L30.2805 32.784L29.527 33.2475C29.4784 33.2766 29.4492 33.33 29.4492 33.3858C29.4492 33.4416 29.4784 33.495 29.527 33.5241L30.2805 33.9875L30.4896 34.8465C30.5017 34.9023 30.543 34.946 30.5965 34.963C30.6135 34.9678 30.6305 34.9702 30.6476 34.9702C30.6864 34.9702 30.7229 34.9581 30.7521 34.9314L31.4254 34.3588L32.3077 34.4267C32.3636 34.434 32.4171 34.4049 32.4511 34.3612C32.4852 34.3151 32.4925 34.2569 32.4706 34.2035L32.1327 33.3858L32.4706 32.5681C32.49 32.5147 32.4852 32.4564 32.4511 32.4103Z" fill="#3C3C3B"/>
<path d="M30.6479 31.8012C30.6868 31.8012 30.7232 31.8133 30.7524 31.84L31.4257 32.4127L32.308 32.3447C32.3129 32.3447 32.3153 32.3447 32.3202 32.3447C32.3712 32.3447 32.4199 32.369 32.4515 32.4102C32.4855 32.4563 32.4928 32.5146 32.4709 32.568L32.133 33.3857L32.4709 34.2034C32.4928 34.2543 32.4855 34.315 32.4515 34.3611C32.4223 34.4024 32.3761 34.4291 32.3275 34.4291C32.3202 34.4291 32.3153 34.429 32.308 34.4266L31.4257 34.3587L30.7524 34.9313C30.7232 34.9556 30.6843 34.9701 30.6479 34.9701C30.6309 34.9701 30.6138 34.9677 30.5968 34.9629C30.5434 34.9459 30.502 34.9022 30.4899 34.8464L30.2808 33.9874L29.5273 33.524C29.4787 33.4949 29.4495 33.4415 29.4495 33.3857C29.4495 33.3299 29.4787 33.2765 29.5273 33.2474L30.2808 32.7839L30.4899 31.925C30.502 31.8716 30.5434 31.8279 30.5968 31.8085C30.6138 31.8036 30.6309 31.8012 30.6479 31.8012ZM30.6479 31.3159C30.5822 31.3159 30.5142 31.3256 30.451 31.3475C30.2322 31.4178 30.0718 31.5901 30.0183 31.8109L29.8579 32.4758L29.2745 32.8349C29.0849 32.9513 28.9658 33.1624 28.9658 33.3857C28.9658 33.6089 29.0849 33.82 29.2745 33.9365L29.8579 34.2956L30.0183 34.9604C30.0718 35.1764 30.2347 35.3535 30.4486 35.4239C30.5118 35.4457 30.5798 35.4554 30.6479 35.4554C30.801 35.4554 30.9517 35.3996 31.0684 35.3001L31.591 34.8585L32.2643 34.9095C32.2862 34.9119 32.308 34.9119 32.3299 34.9119C32.5317 34.9119 32.7237 34.8124 32.8452 34.6474C32.9789 34.463 33.0081 34.2277 32.9206 34.019L32.6605 33.3857L32.9206 32.7524C33.0057 32.5461 32.9765 32.3059 32.8452 32.1264C32.7261 31.9614 32.5292 31.8594 32.3226 31.8594C32.3105 31.8594 32.2862 31.8594 32.274 31.8619L31.591 31.9128L31.0684 31.4688C30.9517 31.3693 30.801 31.3159 30.6479 31.3159Z" fill="#3C3C3B"/>
<path d="M25.7986 37.1538L25.7305 36.1372C25.7257 36.0813 25.6941 36.0304 25.6455 36.0037C25.5969 35.977 25.5361 35.9794 25.4875 36.0086L24.6076 36.5278L23.6158 36.2779C23.5624 36.2633 23.504 36.2803 23.4627 36.3191C23.4214 36.358 23.4044 36.4162 23.4165 36.4696L23.6401 37.4644L23.0957 38.3282C23.0665 38.3768 23.0616 38.435 23.0884 38.486C23.1127 38.5369 23.1613 38.5709 23.2172 38.5757L24.2357 38.6728L24.8895 39.4565C24.9211 39.4929 24.9649 39.5148 25.0135 39.5148C25.0208 39.5148 25.0281 39.5148 25.0354 39.5123C25.0913 39.5051 25.1375 39.4687 25.1618 39.4153L25.5677 38.4787L26.5157 38.1001C26.5667 38.0783 26.6056 38.0322 26.6153 37.9788C26.625 37.923 26.6056 37.8672 26.5619 37.8308L25.7986 37.1538Z" fill="#3C3C3B"/>
<path d="M25.5699 35.9843C25.5966 35.9843 25.6209 35.9916 25.6452 36.0037C25.6938 36.0304 25.7279 36.079 25.7303 36.1372L25.7984 37.1539L26.564 37.8284C26.6053 37.8648 26.6248 37.9231 26.6175 37.9764C26.6078 38.0322 26.5689 38.0784 26.5178 38.0978L25.5699 38.4763L25.1639 39.4129C25.1421 39.4639 25.0934 39.5002 25.0375 39.51C25.0302 39.51 25.023 39.5124 25.0157 39.5124C24.9671 39.5124 24.9233 39.4905 24.8917 39.4541L24.2378 38.6704L23.2194 38.5733C23.1635 38.5685 23.1149 38.5345 23.0905 38.4836C23.0662 38.4326 23.0687 38.3744 23.0978 38.3259L23.6423 37.462L23.4187 36.4672C23.4065 36.4114 23.4235 36.3556 23.4649 36.3168C23.4965 36.2876 23.5354 36.2706 23.5767 36.2706C23.5913 36.2706 23.6034 36.2731 23.618 36.2755L24.6097 36.5254L25.4897 36.0062C25.5115 35.9916 25.5407 35.9843 25.5699 35.9843ZM25.5699 35.5015C25.4556 35.5015 25.3438 35.5306 25.2442 35.5888L24.532 36.0086L23.7347 35.8072C23.6885 35.7951 23.6326 35.7878 23.5767 35.7878C23.409 35.7878 23.2485 35.8533 23.127 35.9698C22.9641 36.1275 22.8961 36.3531 22.9471 36.5764L23.127 37.3771L22.6895 38.0711C22.5704 38.2603 22.5582 38.503 22.6579 38.702C22.7575 38.9033 22.952 39.0368 23.178 39.0586L23.9972 39.1363L24.5247 39.7672C24.6486 39.9152 24.8309 40.0001 25.023 40.0001C25.0497 40.0001 25.0789 39.9977 25.1056 39.9952C25.3389 39.9613 25.5261 39.8181 25.6161 39.6119L25.9418 38.8597L26.705 38.5539C26.914 38.4714 27.0623 38.287 27.1012 38.0662C27.1401 37.8406 27.0623 37.6198 26.8922 37.4693L26.2748 36.9258L26.2189 36.1081C26.2043 35.8824 26.0755 35.6859 25.8761 35.5791C25.7789 35.5257 25.6744 35.5015 25.5699 35.5015Z" fill="#3C3C3B"/>
<path d="M20.3031 6.62653C24.146 5.61955 28.0036 4.9911 31.46 4.80912L31.5402 4.80427L31.4892 4.74361C30.1718 3.13487 28.2855 1.96532 26.0371 1.36599C23.7814 0.76423 21.324 0.77879 18.9297 1.40724C16.5355 2.03569 14.3867 3.2295 12.7193 4.86007C11.0542 6.48822 9.98714 8.42938 9.63226 10.4773L9.61768 10.5549L9.68817 10.5186C12.7922 8.98261 16.4601 7.63593 20.3031 6.62653Z" fill="#DEF0F9"/>
<path d="M1.34582 20.8115L1.3045 20.7727L1.2802 20.8237C1.21701 20.9547 1.20242 21.1003 1.23888 21.2386C1.2802 21.3939 1.37984 21.5249 1.51838 21.6074C1.61316 21.6608 1.71767 21.6899 1.82217 21.6899C1.87321 21.6899 1.92668 21.6826 1.97772 21.6705C2.09195 21.6414 2.19646 21.5759 2.27909 21.4812L2.31311 21.4424L2.26451 21.4206C1.88293 21.2337 1.57427 21.0299 1.34582 20.8115Z" fill="#FFF164"/>
<path d="M29.712 7.50488C29.661 7.50488 29.61 7.51216 29.5589 7.52429C29.4034 7.56554 29.2721 7.66503 29.1895 7.80334C29.1069 7.94164 29.085 8.10422 29.1263 8.26194C29.1676 8.41723 29.2673 8.54826 29.4058 8.63075C29.5006 8.68656 29.6051 8.71325 29.7096 8.71325C29.7606 8.71325 29.8141 8.70598 29.8651 8.69384C30.0207 8.65259 30.1519 8.55311 30.2346 8.4148C30.3172 8.27649 30.3391 8.11392 30.2978 7.9562C30.2273 7.69172 29.9867 7.50488 29.712 7.50488Z" fill="#FFF164"/>
<path d="M12.8285 11.9331C12.7775 11.9331 12.7264 11.9404 12.6754 11.9525C12.3522 12.0374 12.1602 12.3699 12.2428 12.6902C12.2841 12.8455 12.3838 12.9765 12.5223 13.059C12.6171 13.1124 12.7216 13.1415 12.8261 13.1415C12.8771 13.1415 12.9282 13.1342 12.9816 13.1221C13.3049 13.0371 13.4969 12.7071 13.4142 12.3844C13.3462 12.1175 13.1056 11.9331 12.8285 11.9331Z" fill="#FFF164"/>
<path d="M21.1464 9.24951C21.0954 9.24951 21.0443 9.25679 20.9933 9.26892C20.67 9.35385 20.478 9.68384 20.5607 10.0066C20.602 10.1619 20.7016 10.2929 20.8402 10.3754C20.935 10.4288 21.0395 10.4579 21.144 10.4579C21.195 10.4579 21.246 10.4506 21.2995 10.4385C21.4551 10.3972 21.5863 10.2977 21.6689 10.1594C21.7516 10.0211 21.7734 9.85612 21.7321 9.70083C21.6641 9.43635 21.421 9.24951 21.1464 9.24951Z" fill="#FFF164"/>
<path d="M4.34037 17.32C4.43515 17.3758 4.53966 17.4025 4.64417 17.4025C4.69521 17.4025 4.74868 17.3952 4.79971 17.3831C5.12296 17.2981 5.31496 16.9681 5.23232 16.6454C5.16184 16.3809 4.92123 16.1941 4.6466 16.1941C4.59556 16.1941 4.54452 16.2014 4.49348 16.2135C4.33794 16.2548 4.2067 16.3542 4.12406 16.4925C4.04143 16.6309 4.01956 16.7958 4.06087 16.9511C4.09976 17.1064 4.19941 17.2375 4.34037 17.32Z" fill="#FFF164"/>
<path d="M39.2425 7.28175C39.104 7.20168 38.9387 7.17984 38.7832 7.21867C38.4599 7.30359 38.2655 7.63602 38.3505 7.95631C38.3919 8.1116 38.4915 8.24263 38.63 8.32513C38.7248 8.37851 38.8269 8.40763 38.9338 8.40763C38.9849 8.40763 39.0384 8.40035 39.0894 8.38821C39.2449 8.34696 39.3762 8.24748 39.4588 8.10917C39.5414 7.97086 39.5633 7.80829 39.522 7.65057C39.4807 7.49285 39.381 7.36183 39.2425 7.28175Z" fill="#FFF164"/>
<path d="M44.0895 9.99922C44.0555 9.86577 43.9753 9.75172 43.8586 9.6668L43.8124 9.63525L43.7954 9.68864C43.7031 9.98709 43.5329 10.3147 43.2899 10.6592L43.2583 10.7029L43.3093 10.7199C43.375 10.7417 43.443 10.7538 43.5111 10.7538C43.5597 10.7538 43.6083 10.7466 43.6569 10.7344C43.9801 10.6519 44.1746 10.3219 44.0895 9.99922Z" fill="#FFF164"/>
<path d="M34.1169 15.6433C33.8642 14.6824 32.2283 14.1292 29.6274 14.1292C27.5467 14.1292 25.031 14.4883 22.5468 15.141C19.6688 15.8956 17.0582 16.9608 15.1963 18.1352C13.3976 19.2708 12.4958 20.4088 12.717 21.2556C12.8166 21.6366 13.0524 22.0345 13.4 22.4058L13.434 22.4422L13.4632 22.3985C14.6372 20.6296 18.5288 18.6302 23.1447 17.4194C27.7777 16.2038 32.1578 16.0412 34.044 17.0118L34.0902 17.036L34.1024 16.9851C34.2142 16.5022 34.219 16.0388 34.1169 15.6433Z" fill="#C6C6C5"/>
<path d="M9.93087 15.3231L9.86768 15.3547L9.92601 15.3935C11.2216 16.2597 12.838 17.0702 15.0135 17.9437H15.0451L15.0621 17.9316C16.9459 16.7426 19.5784 15.6677 22.4806 14.9082C25.4048 14.1415 28.2317 13.7823 30.4412 13.8988H30.4631L30.4752 13.8818C31.9434 12.0474 32.9546 10.5455 33.6546 9.15025L33.6862 9.08716L33.6157 9.09201C30.0231 9.29341 25.8301 10.0019 21.4913 11.1399C17.2668 12.2488 13.1613 13.7338 9.93087 15.3231Z" fill="#D6DDF5"/>
<path d="M32.6849 6.31135L32.8162 6.29922L32.7019 6.23613C31.9897 5.83576 30.9834 5.32136 30.2445 5.13695L30.2372 5.13452H30.2299C27.0846 5.38687 23.7642 5.96679 20.3637 6.85972C16.9582 7.75266 13.7764 8.87853 10.9082 10.2058L10.8985 10.2131C10.3491 10.7348 9.73174 11.6665 9.31122 12.3556L9.24316 12.4672L9.36227 12.4139C12.6534 10.9192 16.6034 9.55066 20.7842 8.4539C24.9504 7.36443 29.0632 6.62193 32.6849 6.31135Z" fill="#D6DDF5"/>
<path d="M8.84453 12.6539L8.85668 12.649L8.86397 12.6393C9.19212 12.0764 9.69285 11.2708 10.2082 10.6278L10.32 10.4871L10.1595 10.5647C8.54555 11.3484 7.09442 12.1734 5.84503 13.0178C3.32925 14.7164 1.70796 16.4319 1.15376 17.9775L1.03223 18.3196L1.22668 18.0139C2.26703 16.3663 4.97484 14.464 8.84453 12.6539Z" fill="#D6DDF5"/>
<path d="M30.8862 5.08833L31.0515 5.15627C31.8148 5.462 32.6606 5.92788 33.2319 6.26273L33.244 6.27001H33.2562C34.3427 6.18994 35.3636 6.14869 36.2921 6.14869H36.3918C39.1506 6.15597 41.2751 6.51751 42.5342 7.18963L42.8502 7.35948L42.5804 7.12412C41.3383 6.04435 39.0777 5.34311 36.0418 5.09803C34.5347 4.97671 32.86 4.96943 31.0637 5.08105L30.8862 5.08833Z" fill="#D6DDF5"/>
<path d="M35.5969 9.03369H35.5799C35.0816 9.03369 34.5492 9.04825 33.9926 9.07251H33.9683L33.9586 9.09435C33.2756 10.4968 32.2717 12.0109 30.8059 13.8575L30.7598 13.9157L30.8351 13.923C32.8648 14.088 34.1141 14.6776 34.3524 15.5827C34.5006 16.148 34.4423 16.8177 34.1822 17.5214L34.1482 17.6112L34.2357 17.5724C39.52 15.209 42.5317 12.7073 42.0942 11.0428C41.7563 9.76648 39.3888 9.03369 35.5969 9.03369Z" fill="#D6DDF5"/>
<path d="M12.4807 21.3187C12.2425 20.4137 13.0398 19.2902 14.7243 18.1546L14.7875 18.1134L14.717 18.0843C12.5366 17.1986 10.9227 16.3761 9.63681 15.4928L9.61736 15.4783L9.59549 15.488C5.33931 17.6305 3.11764 19.6979 3.50413 21.1634C3.84443 22.4592 6.25326 23.1701 10.0209 23.1701C11.0977 23.1701 12.2887 23.1119 13.5721 22.993L13.6669 22.9833L13.594 22.9202C13.0204 22.4349 12.6241 21.8647 12.4807 21.3187Z" fill="#D6DDF5"/>
<path d="M34.2185 7.14606C34.0314 6.72628 33.6643 6.48606 33.2292 6.51276C29.4932 6.79422 25.2103 7.54642 20.8472 8.6917C16.5011 9.83214 12.4078 11.271 8.99991 12.8555C8.99262 12.8603 8.98776 12.8676 8.98533 12.87C8.59398 13.0593 8.38494 13.4475 8.43113 13.9086C8.47488 14.3526 8.80059 14.9544 9.57356 15.1849L9.58814 15.1897L9.60273 15.1825C12.8599 13.5592 16.9508 12.0815 21.4306 10.9071C25.8788 9.73993 30.1617 9.02413 33.8175 8.83972H33.8345L33.8466 8.82759C34.4106 8.24524 34.4008 7.55855 34.2185 7.14606ZM13.5624 12.9647C13.4481 13.1612 13.2634 13.2995 13.0446 13.3578C12.8283 13.416 12.5949 13.382 12.4005 13.2704C12.2036 13.1564 12.065 12.972 12.0091 12.7536C11.9508 12.5352 11.9824 12.3071 12.0966 12.1106C12.2109 11.914 12.3956 11.7757 12.6144 11.7175C12.6873 11.6981 12.7602 11.6884 12.8307 11.6884C12.979 11.6884 13.1248 11.7272 13.2561 11.8048C13.453 11.9189 13.5915 12.1033 13.6474 12.3217C13.7082 12.5401 13.6766 12.7681 13.5624 12.9647ZM21.8802 10.281C21.766 10.4776 21.5813 10.6159 21.3625 10.6741C21.1462 10.7323 20.9128 10.6984 20.7184 10.5868C20.5239 10.4727 20.3829 10.2883 20.3246 10.0699C20.2663 9.85155 20.2979 9.62346 20.4121 9.42692C20.5263 9.23038 20.7111 9.09207 20.9298 9.03383C21.0028 9.01442 21.0732 9.00472 21.1462 9.00472C21.2944 9.00472 21.4403 9.04354 21.5715 9.12119C21.7684 9.23523 21.907 9.41964 21.9629 9.63802C22.0261 9.85883 21.9945 10.0869 21.8802 10.281ZM30.4436 8.53641C30.3294 8.73053 30.1471 8.87126 29.9259 8.92707C29.7096 8.98531 29.4762 8.95133 29.2818 8.83972C29.0849 8.72568 28.9463 8.54127 28.888 8.32289C28.8296 8.1045 28.8612 7.87642 28.9755 7.67988C29.0897 7.48576 29.272 7.34503 29.4932 7.28922C29.5637 7.26981 29.6366 7.2601 29.7096 7.2601C29.8578 7.2601 30.0037 7.29892 30.1374 7.37657C30.3343 7.49061 30.4728 7.67502 30.5287 7.8934C30.5895 8.11421 30.5579 8.3423 30.4436 8.53641Z" fill="url(#paint0_linear_895_6762)"/>
<path d="M43.606 8.6722C43.2268 7.23332 40.5992 6.40105 36.3941 6.38892H36.2944C35.6114 6.38892 34.8603 6.41075 34.063 6.45686L33.9561 6.46414L34.0387 6.52965C34.2113 6.66553 34.3474 6.84024 34.4398 7.04891C34.6804 7.59243 34.5978 8.23059 34.2186 8.75713L34.17 8.82507L34.2526 8.82264C34.7387 8.80323 35.1714 8.79353 35.5773 8.79353H35.5944C39.5637 8.79353 41.9531 9.57241 42.325 10.9846C42.3493 11.072 42.3639 11.169 42.3687 11.2782L42.3736 11.3704L42.4368 11.3049C43.3945 10.3125 43.798 9.40256 43.606 8.6722ZM39.6682 8.23059C39.554 8.42471 39.3717 8.56544 39.1505 8.62367C38.9342 8.68191 38.7008 8.65037 38.5063 8.53632C38.3095 8.42228 38.1709 8.23787 38.1126 8.01949C37.9935 7.56817 38.2657 7.10472 38.7178 6.98582C38.7907 6.96641 38.8637 6.9567 38.9341 6.9567C39.0824 6.9567 39.2283 6.99553 39.3595 7.07317C39.5564 7.18722 39.695 7.37163 39.7533 7.59001C39.8141 7.80839 39.7849 8.03405 39.6682 8.23059Z" fill="url(#paint1_linear_895_6762)"/>
<path d="M8.18796 13.9328C8.16608 13.6999 8.19768 13.4791 8.28762 13.2704L8.33137 13.1709L8.23414 13.2194C3.18799 15.6774 0.557962 18.0917 1.0198 19.8436C1.21182 20.574 2.0091 21.1685 3.32654 21.5616L3.41405 21.5882L3.37272 21.5057C3.32654 21.4087 3.29251 21.3189 3.2682 21.2291C2.85498 19.6616 5.02075 17.5312 9.21129 15.3838L9.28421 15.3474L9.20886 15.3135C8.62792 15.032 8.2463 14.5176 8.18796 13.9328ZM5.37563 17.2255C5.26138 17.422 5.07665 17.5603 4.85789 17.6186C4.7874 17.638 4.71448 17.6477 4.64155 17.6477C4.2575 17.6477 3.91963 17.3881 3.82241 17.0168C3.76407 16.7984 3.79567 16.5704 3.90991 16.3738C4.02415 16.1773 4.20889 16.039 4.42765 15.9832C4.64642 15.9249 4.8749 15.9565 5.06936 16.0705C5.26625 16.1845 5.4048 16.369 5.46313 16.5873C5.52147 16.8009 5.4923 17.029 5.37563 17.2255Z" fill="url(#paint2_linear_895_6762)"/>
<path d="M23.2078 17.6549C18.6502 18.8512 14.71 20.8797 13.6283 22.5879L13.6113 22.617L13.6356 22.6389C14.2141 23.163 14.975 23.5779 15.9011 23.8691C16.7081 24.1238 17.8359 24.3422 19.3308 24.3422C20.7819 24.3422 22.5782 24.1384 24.7634 23.5633C27.498 22.8451 29.7221 21.8551 31.3725 20.6152C33.0813 19.334 33.7498 18.1062 34.0123 17.3031L34.022 17.2715L33.9928 17.2546C32.216 16.2913 27.7799 16.4538 23.2078 17.6549Z" fill="#ECECEC"/>
<path d="M25.5339 29.7918L25.2325 28.6199L24.3185 29.4157C24.2942 29.4352 24.2626 29.4449 24.231 29.4449L23.0205 29.3672L23.4969 30.481C23.5091 30.5101 23.5091 30.544 23.4969 30.5732L23.0497 31.699L24.2577 31.5898C24.2893 31.5874 24.3209 31.5971 24.3452 31.6165L25.2276 32.3469L25.2786 32.3881L25.5484 31.2089C25.5557 31.1773 25.5752 31.1507 25.6019 31.1337L26.6252 30.4858L25.5849 29.8646C25.5606 29.8501 25.5412 29.8234 25.5339 29.7918Z" fill="#FFF164"/>
<path d="M38.8784 31.4249L39.0218 30.2238L37.8818 30.6387C37.8526 30.6508 37.8186 30.6484 37.7894 30.6363L36.6883 30.1292L36.7296 31.3399C36.7296 31.3715 36.7199 31.403 36.698 31.4273L35.874 32.3154L37.0408 32.6478C37.0724 32.6575 37.0967 32.6769 37.1137 32.706L37.7068 33.7615L38.3849 32.757C38.402 32.7303 38.4311 32.7133 38.4627 32.706L39.6513 32.4707L38.9051 31.5171C38.8832 31.488 38.8735 31.4564 38.8784 31.4249Z" fill="#FFF164"/>
<path d="M30.3176 26.8267C30.3322 26.7976 30.3565 26.7758 30.3881 26.7661L31.1538 26.5186L30.5875 25.9459C30.5656 25.9241 30.5534 25.8926 30.5534 25.861L30.5559 25.0579L29.8364 25.4194C29.8072 25.434 29.7756 25.4364 29.744 25.4267L28.9783 25.1768L29.0999 25.9726C29.1047 26.0042 29.0974 26.0357 29.078 26.0624L28.6016 26.7127L29.3964 26.8437C29.428 26.8486 29.4572 26.8656 29.4742 26.8923L29.9457 27.545L30.3176 26.8267Z" fill="#FFF164"/>
<path d="M25.5221 37.2387L25.4638 36.3506L24.6957 36.8043C24.6665 36.8213 24.6349 36.8262 24.6033 36.8165L23.738 36.5981L23.9324 37.4667C23.9397 37.4983 23.9349 37.5298 23.9178 37.559L23.4438 38.3112L24.3311 38.3937C24.3627 38.3961 24.3918 38.4131 24.4137 38.4373L24.9849 39.1216L25.3398 38.3063C25.352 38.2772 25.3763 38.2529 25.4054 38.2408L26.2343 37.9108L25.5659 37.3212C25.5391 37.3018 25.5245 37.2702 25.5221 37.2387Z" fill="#FFF164"/>
<path d="M32.1335 32.6405L31.3824 32.6987C31.3532 32.7011 31.3168 32.6914 31.2949 32.6696L30.7212 32.1819L30.5438 32.9147C30.5365 32.9462 30.5171 32.9729 30.4879 32.9899L29.8462 33.3854L30.4879 33.7809C30.5146 33.7979 30.5341 33.8246 30.5414 33.8561L30.7188 34.5889L31.2925 34.1012C31.3192 34.0794 31.3508 34.0672 31.38 34.0721L32.1335 34.1303L31.8467 33.4339C31.8345 33.4048 31.8345 33.3708 31.8467 33.3417L32.1335 32.6405Z" fill="#FFF164"/>
<path d="M24.6404 23.1307C24.9636 23.0459 25.1914 22.8469 25.1491 22.6861C25.1068 22.5254 24.8104 22.4639 24.4872 22.5486C24.1639 22.6334 23.9361 22.8324 23.9784 22.9932C24.0207 23.1539 24.3171 23.2154 24.6404 23.1307Z" fill="#3C3C3B"/>
<path d="M29.1577 21.615C29.4527 21.5726 29.6717 21.3995 29.647 21.2284C29.6223 21.0573 29.3632 20.953 29.0682 20.9954C28.7733 21.0379 28.5542 21.211 28.5789 21.3821C28.6036 21.5532 28.8628 21.6575 29.1577 21.615Z" fill="#3C3C3B"/>
<path d="M26.4772 22.2098C26.7482 22.1708 26.9486 22.0058 26.9249 21.8414C26.9011 21.6769 26.6622 21.5752 26.3911 21.6142C26.1201 21.6532 25.9196 21.8181 25.9434 21.9826C25.9672 22.1471 26.2061 22.2488 26.4772 22.2098Z" fill="#3C3C3B"/>
<path d="M24.1857 21.3957C24.5752 21.2936 24.834 20.9943 24.7637 20.7273C24.6935 20.4603 24.3208 20.3267 23.9313 20.4288C23.5418 20.531 23.283 20.8302 23.3533 21.0972C23.4236 21.3642 23.7963 21.4979 24.1857 21.3957Z" fill="#3C3C3B"/>
<path d="M27.0285 20.9506C27.3645 20.9256 27.622 20.7071 27.6037 20.4625C27.5855 20.218 27.2983 20.04 26.9623 20.065C26.6264 20.0901 26.3688 20.3086 26.3871 20.5531C26.4054 20.7977 26.6926 20.9757 27.0285 20.9506Z" fill="#3C3C3B"/>
<path d="M19.9629 24.0266C20.2407 23.9188 20.415 23.7009 20.3523 23.5397C20.2896 23.3786 20.0136 23.3353 19.7358 23.4431C19.4581 23.5508 19.2838 23.7688 19.3465 23.9299C19.4092 24.0911 19.6852 24.1343 19.9629 24.0266Z" fill="#3C3C3B"/>
<path d="M22.5887 23.23C22.8439 23.131 23.002 22.9252 22.9417 22.7703C22.8814 22.6154 22.6256 22.5701 22.3703 22.6691C22.1151 22.7681 21.9571 22.9739 22.0174 23.1288C22.0777 23.2837 22.3334 23.329 22.5887 23.23Z" fill="#3C3C3B"/>
<path d="M21.4891 22.404C21.794 22.2609 21.9565 21.965 21.852 21.7431C21.7475 21.5212 21.4156 21.4572 21.1107 21.6003C20.8058 21.7434 20.6433 22.0393 20.7478 22.2612C20.8523 22.4832 21.1842 22.5471 21.4891 22.404Z" fill="#3C3C3B"/>
<path d="M21.1464 3.69314C21.5839 3.57909 21.8439 3.13263 21.7297 2.69587C21.6155 2.25911 21.1683 1.99948 20.7308 2.11352C20.2933 2.22756 20.0333 2.67403 20.1475 3.11079C20.2617 3.54512 20.7089 3.80718 21.1464 3.69314Z" fill="white"/>
<path d="M32.1449 18.9481C32.4657 18.5865 32.4754 18.1328 32.1668 17.9338C31.8557 17.7348 31.3429 17.8634 31.022 18.225C30.7012 18.5865 30.6915 19.0403 31.0002 19.2392C31.3088 19.4382 31.8216 19.3072 32.1449 18.9481Z" fill="white"/>
<path d="M18.3703 2.73951C15.9493 3.36311 13.9634 4.72435 12.6289 6.67521C12.3761 7.04403 12.4709 7.54631 12.8404 7.79866C12.9789 7.89329 13.1394 7.93939 13.2974 7.93939C13.555 7.93939 13.8102 7.81564 13.9658 7.58755C15.0912 5.94242 16.7101 4.83839 18.7762 4.30457C19.2088 4.19295 19.4689 3.75134 19.3571 3.31943C19.2429 2.88753 18.8029 2.6279 18.3703 2.73951Z" fill="white"/>
<path d="M20.9202 8.99725C20.6918 9.05791 20.4973 9.2035 20.3782 9.40732C20.2592 9.61114 20.2251 9.85136 20.2859 10.0794C20.3466 10.31 20.4925 10.5016 20.6966 10.6205C20.8352 10.7006 20.9883 10.7419 21.1438 10.7419C21.2192 10.7419 21.2969 10.7322 21.3723 10.7127C21.6032 10.6521 21.7952 10.5065 21.9143 10.3027C22.0333 10.0989 22.0674 9.85864 22.0066 9.63055C21.8827 9.15497 21.3966 8.87108 20.9202 8.99725ZM21.6348 10.1377C21.5594 10.2687 21.4355 10.3609 21.2896 10.3997C21.1438 10.4386 20.9907 10.4167 20.8619 10.3415C20.7306 10.2663 20.6383 10.1425 20.5994 9.99695C20.5192 9.69607 20.7015 9.38791 21.0029 9.30784C21.0515 9.2957 21.1001 9.28842 21.1462 9.28842C21.3966 9.28842 21.6275 9.45585 21.6931 9.7082C21.732 9.85621 21.7101 10.0091 21.6348 10.1377Z" fill="#3C3C3B"/>
<path d="M29.4861 7.25271C29.2577 7.31337 29.0633 7.45896 28.9442 7.66278C28.8251 7.8666 28.791 8.10682 28.8518 8.3349C28.9126 8.56299 29.0584 8.75711 29.2625 8.876C29.4011 8.95608 29.5542 8.99733 29.7097 8.99733C29.7851 8.99733 29.8628 8.98762 29.9382 8.96821C30.1666 8.90755 30.3611 8.76196 30.4802 8.55814C30.5993 8.35432 30.6333 8.1141 30.5725 7.88601C30.4461 7.41285 29.9601 7.12653 29.4861 7.25271ZM30.2007 8.39557C30.1253 8.52659 30.0014 8.6188 29.8556 8.65762C29.7097 8.69645 29.5566 8.67461 29.4278 8.59939C29.2966 8.52417 29.2042 8.40042 29.1653 8.25483C29.1264 8.10924 29.1483 7.95638 29.2237 7.82778C29.299 7.69675 29.4229 7.60454 29.5688 7.56572C29.6174 7.55359 29.666 7.54631 29.7122 7.54631C29.9625 7.54631 30.191 7.71373 30.259 7.96609C30.2955 8.11167 30.276 8.26454 30.2007 8.39557Z" fill="#3C3C3B"/>
<path d="M39.3864 7.03663C39.1822 6.91774 38.9416 6.88619 38.7132 6.94443C38.2392 7.06818 37.9549 7.55589 38.0788 8.02905C38.1396 8.25956 38.2854 8.45125 38.4896 8.57015C38.6281 8.65022 38.7812 8.69147 38.9368 8.69147C39.0121 8.69147 39.0899 8.68176 39.1652 8.66235C39.3937 8.60169 39.5881 8.45611 39.7072 8.25228C39.8263 8.04846 39.8603 7.80824 39.7996 7.58016C39.7364 7.34965 39.5905 7.15553 39.3864 7.03663ZM39.4253 8.08729C39.3499 8.21831 39.226 8.31052 39.0802 8.34934C38.9343 8.38574 38.7812 8.36633 38.6524 8.29111C38.5212 8.21589 38.4288 8.09214 38.3899 7.94655C38.3097 7.64567 38.492 7.33751 38.7934 7.25744C38.842 7.24531 38.8906 7.23803 38.9368 7.23803C39.0364 7.23803 39.1336 7.26472 39.2211 7.31568C39.3524 7.3909 39.4447 7.51464 39.4836 7.66023C39.5225 7.80582 39.5006 7.95868 39.4253 8.08729Z" fill="#3C3C3B"/>
<path d="M43.91 9.37093C43.9513 9.10402 43.944 8.84682 43.8784 8.59932C43.3315 6.52228 40.5581 5.17803 36.0661 4.81406C34.7584 4.7073 33.3486 4.69031 31.8658 4.7534C29.1605 1.25446 23.9466 -0.198982 18.8591 1.13556C13.7692 2.47011 9.94571 6.29662 9.30886 10.6691C7.98656 11.3412 6.76877 12.0473 5.68467 12.7801C1.95353 15.3012 0.19856 17.8344 0.74547 19.9114C0.808669 20.1565 0.927774 20.3822 1.09306 20.5933C0.952081 20.8044 0.901036 21.0616 0.966665 21.3091C1.02743 21.5396 1.17327 21.7313 1.37745 21.8502C1.516 21.9302 1.66914 21.9715 1.82471 21.9715C1.90006 21.9715 1.97784 21.9618 2.05319 21.9424C2.25737 21.889 2.43238 21.7628 2.55149 21.5929C2.86991 21.724 3.22966 21.838 3.62829 21.9399C4.53009 22.9324 6.75905 23.4589 9.99675 23.4589C11.1829 23.4589 12.5052 23.3885 13.9467 23.2429C14.4377 23.5875 15.0551 23.9005 15.8159 24.1407C16.6447 24.4028 17.8018 24.626 19.3307 24.626C20.8037 24.626 22.6243 24.4198 24.8362 23.8398C30.3491 22.3937 33.0642 20.0012 34.0365 17.9703C38.9732 15.8059 41.9654 13.559 42.3689 11.7755C42.6631 11.4965 42.9183 11.2223 43.1298 10.9554C43.2464 11.0112 43.3753 11.0403 43.5041 11.0403C43.5794 11.0403 43.6548 11.0306 43.7301 11.0112C44.2041 10.8875 44.4885 10.4022 44.3646 9.92901C44.2989 9.68151 44.1312 9.48497 43.91 9.37093ZM36.0418 5.13435C39.1021 5.38185 41.3286 6.08309 42.5585 7.15073C41.297 6.47618 39.2042 6.11221 36.3967 6.10493C36.3627 6.10493 36.3311 6.10493 36.297 6.10493C35.3393 6.10493 34.3209 6.14861 33.2562 6.22625C32.6169 5.85258 31.8051 5.41339 31.0686 5.11737C32.8381 5.00818 34.5105 5.0106 36.0418 5.13435ZM21.4211 10.868C16.8027 12.0788 12.7167 13.5881 9.58596 15.1483C8.8373 14.9251 8.51402 14.3476 8.4727 13.906C8.42894 13.4619 8.62826 13.0882 9.00502 12.9063C9.01232 12.9014 9.01718 12.8941 9.02447 12.8893C12.2962 11.3679 16.3676 9.9096 20.8596 8.73035C25.2519 7.57778 29.5299 6.83044 33.2343 6.55382C33.6549 6.52956 34.0024 6.75764 34.1823 7.16286C34.3622 7.5705 34.367 8.23535 33.8153 8.80071C30.1935 8.9827 25.8717 9.70093 21.4211 10.868ZM33.6208 9.13314C32.9256 10.5162 31.912 12.0279 30.4463 13.8574C28.3146 13.7458 25.5071 14.0734 22.4736 14.8668C19.5689 15.6287 16.9291 16.7037 15.0429 17.895C15.038 17.8975 15.0332 17.8999 15.0308 17.9047C12.8601 17.0337 11.234 16.2184 9.95057 15.3594C13.0667 13.8283 17.0847 12.3409 21.5037 11.1811C25.845 10.0406 30.0647 9.33211 33.6208 9.13314ZM9.34775 12.3797C9.77556 11.6761 10.3832 10.7613 10.9277 10.2445C13.7449 8.94145 16.9607 7.79616 20.3783 6.90081C23.7886 6.00545 27.1454 5.42553 30.2373 5.17803C30.9689 5.36001 31.9606 5.86714 32.685 6.27235C29.0827 6.58051 24.9821 7.31573 20.7794 8.41734C16.4454 9.55291 12.5417 10.9287 9.34775 12.3797ZM18.9418 1.44858C23.8153 0.169838 28.791 1.50924 31.4599 4.77281C28.0156 4.95237 24.1872 5.57111 20.2957 6.59022C16.4041 7.61175 12.7653 8.95358 9.6759 10.4871C10.3905 6.33544 14.0658 2.72731 18.9418 1.44858ZM5.86455 13.0494C7.13338 12.1929 8.58451 11.3703 10.1742 10.6011C9.68319 11.2126 9.19705 11.9842 8.82758 12.6175C4.9822 14.4155 2.25494 16.3106 1.18786 17.9897C1.7372 16.4586 3.32931 14.7625 5.86455 13.0494ZM1.96812 21.6293C1.82227 21.6682 1.66914 21.6463 1.54031 21.5711C1.40905 21.4959 1.31669 21.3721 1.2778 21.2266C1.24377 21.0955 1.26078 20.9596 1.31669 20.8408C1.55733 21.0688 1.87089 21.2727 2.24765 21.4522C2.17473 21.5371 2.0775 21.6002 1.96812 21.6293ZM1.0566 19.8313C0.587474 18.0455 3.44599 15.5948 8.2515 13.2557C8.164 13.4619 8.1251 13.6924 8.14941 13.9375C8.21018 14.549 8.60639 15.0682 9.19462 15.3448C5.12561 17.4316 2.79699 19.5887 3.22966 21.2363C3.25639 21.3333 3.29285 21.4279 3.33661 21.5202C2.03861 21.1319 1.24863 20.5544 1.0566 19.8313ZM3.54322 21.1538C3.14944 19.6566 5.568 17.5602 9.6127 15.5244C10.8985 16.4076 12.5296 17.2375 14.7002 18.1207C12.9962 19.2684 12.1965 20.3991 12.442 21.3285C12.5733 21.8259 12.9331 22.4131 13.5699 22.9542C7.80668 23.4904 3.97831 22.8086 3.54322 21.1538ZM24.7512 23.5268C20.32 24.6891 17.4979 24.3348 15.9107 23.8326C14.9092 23.5147 14.1727 23.0755 13.6598 22.6096C14.7391 20.9038 18.6258 18.8972 23.215 17.6936C27.8066 16.4901 32.1989 16.33 33.9708 17.2933C33.3121 19.3242 30.7064 21.9642 24.7512 23.5268ZM34.0632 16.9754C32.1624 15.9976 27.8211 16.1504 23.1347 17.3806C18.4532 18.6084 14.6127 20.5957 13.4289 22.3767C13.0643 21.9885 12.848 21.5929 12.7556 21.2435C12.5368 20.4137 13.4338 19.2927 15.2155 18.1668C17.075 16.9924 19.6807 15.9296 22.5538 15.1774C25.1401 14.498 27.6267 14.168 29.6247 14.168C32.0919 14.168 33.8177 14.6727 34.0754 15.6506C34.175 16.0315 34.1775 16.4828 34.0632 16.9754ZM34.2188 17.5335C34.4934 16.791 34.5323 16.1116 34.3889 15.5705C34.1361 14.6145 32.8138 14.0418 30.8352 13.8817C32.2961 12.0424 33.3073 10.5162 33.9927 9.1113C34.5372 9.08704 35.0695 9.07248 35.58 9.07248H35.597C39.3694 9.07248 41.7224 9.79313 42.053 11.0525C42.488 12.7073 39.4934 15.1774 34.2188 17.5335ZM42.4127 11.2733C42.4054 11.1714 42.3933 11.0694 42.3665 10.9724C41.9898 9.54078 39.5858 8.75218 35.597 8.75218H35.58C35.1522 8.75218 34.7073 8.76432 34.2528 8.7813C34.6344 8.24991 34.7268 7.5972 34.4764 7.03426C34.3792 6.81345 34.2358 6.6339 34.0632 6.50044C34.8337 6.45677 35.5824 6.4325 36.2922 6.4325C36.3262 6.4325 36.3578 6.4325 36.3918 6.4325C40.5775 6.44463 43.1905 7.2672 43.5649 8.68667C43.7569 9.4049 43.3534 10.2978 42.4127 11.2733ZM43.6475 10.6982C43.5406 10.7273 43.4287 10.72 43.3242 10.6836C43.56 10.3439 43.7374 10.0164 43.8347 9.70093C43.9392 9.77615 44.017 9.88291 44.051 10.0091C44.1312 10.31 43.9489 10.6181 43.6475 10.6982Z" fill="#3C3C3B"/>
<path d="M13.278 11.7706C13.0738 11.6517 12.8332 11.6178 12.6048 11.6784C12.1308 11.8022 11.8465 12.2899 11.9704 12.763C12.0312 12.9936 12.177 13.1852 12.3812 13.3041C12.5197 13.3842 12.6728 13.4255 12.8284 13.4255C12.9037 13.4255 12.9815 13.4158 13.0568 13.3963C13.5308 13.2726 13.8151 12.7849 13.6912 12.3141C13.628 12.0836 13.4821 11.8919 13.278 11.7706ZM12.9742 13.0833C12.8284 13.1222 12.6753 13.1003 12.5464 13.0251C12.4152 12.9499 12.3228 12.8261 12.284 12.6805C12.2038 12.3797 12.386 12.0715 12.6874 11.9914C12.736 11.9793 12.7846 11.972 12.8308 11.972C13.0811 11.972 13.312 12.1394 13.3776 12.3918C13.4554 12.6951 13.2756 13.0033 12.9742 13.0833Z" fill="#3C3C3B"/>
<path d="M4.64381 17.684C4.71915 17.684 4.79449 17.6743 4.86983 17.6549C5.34376 17.5311 5.62811 17.0434 5.50416 16.5727C5.38021 16.0995 4.89414 15.8156 4.41778 15.9394C4.18689 16.0001 3.99489 16.1456 3.8758 16.3495C3.75671 16.5533 3.72269 16.7935 3.78345 17.0216C3.89038 17.4219 4.25008 17.684 4.64381 17.684ZM4.1553 16.512C4.23064 16.381 4.35459 16.2888 4.50041 16.25C4.54902 16.2378 4.59763 16.2306 4.64381 16.2306C4.89414 16.2306 5.12502 16.398 5.19064 16.6503C5.27085 16.9512 5.08857 17.2594 4.7872 17.3394C4.48583 17.4195 4.17717 17.2375 4.09697 16.9367C4.06051 16.7959 4.07995 16.6431 4.1553 16.512Z" fill="#3C3C3B"/>
<path d="M29.9653 27.9332C29.9701 27.9332 29.9726 27.9332 29.9774 27.9332C30.0333 27.9284 30.0844 27.8968 30.1087 27.8459L30.5389 27.016L31.431 26.7297C31.4845 26.7127 31.5258 26.6691 31.538 26.6132C31.5525 26.5599 31.5355 26.5016 31.4966 26.4604L30.8379 25.7955L30.8403 24.8613C30.8403 24.8055 30.8112 24.7522 30.7626 24.723C30.7139 24.6939 30.6556 24.6915 30.6046 24.7158L29.7684 25.1355L28.8788 24.8444C28.8253 24.8274 28.7669 24.8395 28.7232 24.8735C28.6794 24.9099 28.66 24.9657 28.6673 25.0215L28.8083 25.946L28.2565 26.7006C28.2225 26.7467 28.2152 26.8049 28.237 26.8583C28.2589 26.9093 28.3051 26.9481 28.361 26.9554L29.2847 27.1082L29.834 27.8653C29.8632 27.909 29.9118 27.9332 29.9653 27.9332ZM29.4038 26.8025L28.6746 26.6836L29.1121 26.0867C29.1364 26.0527 29.1486 26.0091 29.1413 25.9678L29.0295 25.2374L29.7319 25.468C29.7733 25.4801 29.817 25.4777 29.8559 25.4583L30.5171 25.1258L30.5146 25.8635C30.5146 25.9072 30.5316 25.946 30.5608 25.9775L31.081 26.5041L30.3761 26.7297C30.3347 26.7418 30.3007 26.771 30.2813 26.8098L29.941 27.4649L29.5083 26.8656C29.484 26.8316 29.4451 26.8098 29.4038 26.8025Z" fill="#3C3C3B"/>
<path d="M25.7914 29.6585L25.4584 28.3604C25.4438 28.307 25.4024 28.2633 25.349 28.2463C25.2955 28.2293 25.2372 28.2415 25.1934 28.2779L24.1822 29.1611L22.8405 29.0762C22.7797 29.0737 22.7311 29.098 22.6971 29.1441C22.6655 29.1902 22.6582 29.2484 22.6801 29.3018L23.2075 30.5345L22.7117 31.7817C22.6898 31.8326 22.6995 31.8933 22.7335 31.937C22.7676 31.9806 22.8186 32.0073 22.8769 32L24.2138 31.8811L25.2493 32.7377C25.2785 32.7619 25.3149 32.7741 25.3538 32.7741C25.3709 32.7741 25.3879 32.7717 25.4049 32.7644C25.4584 32.7474 25.4972 32.7013 25.5094 32.6479L25.8084 31.34L26.9435 30.6218C26.9921 30.5927 27.0189 30.5393 27.0189 30.4835C27.0189 30.4277 26.9873 30.3767 26.9411 30.3476L25.7914 29.6585ZM25.5848 31.1023C25.5483 31.1241 25.524 31.1605 25.5143 31.2017L25.259 32.3179L24.3767 31.5875C24.3475 31.5633 24.3111 31.5512 24.2746 31.5512C24.2697 31.5512 24.2649 31.5512 24.26 31.5512L23.1176 31.6531L23.5405 30.5879C23.5551 30.549 23.5551 30.5029 23.5381 30.4641L23.0884 29.411L24.2333 29.4838C24.2746 29.4862 24.3184 29.4717 24.35 29.445L25.2129 28.6928L25.4972 29.8017C25.507 29.8429 25.5337 29.8793 25.5702 29.9012L26.5546 30.4884L25.5848 31.1023Z" fill="#3C3C3B"/>
<path d="M39.1675 31.3933L39.3255 30.0612C39.3328 30.0054 39.3085 29.9496 39.2648 29.9156C39.221 29.8817 39.1627 29.872 39.1092 29.8914L37.8477 30.35L36.6274 29.787C36.5764 29.7652 36.5181 29.7676 36.4694 29.7992C36.4233 29.8307 36.3941 29.8841 36.3965 29.9399L36.4427 31.2793L35.5312 32.2644C35.4923 32.3057 35.4802 32.3639 35.4947 32.4173C35.5093 32.4707 35.5531 32.5144 35.6066 32.5289L36.8973 32.8977L37.5535 34.0673C37.5803 34.1158 37.6313 34.1474 37.6872 34.1498C37.6897 34.1498 37.6921 34.1498 37.6945 34.1498C37.748 34.1498 37.7991 34.1231 37.8282 34.0794L38.5793 32.9681L39.8968 32.706C39.9527 32.6963 39.9964 32.6575 40.0159 32.6041C40.0353 32.5508 40.0256 32.4925 39.9915 32.4488L39.1675 31.3933ZM38.4529 32.6648C38.4116 32.6721 38.3751 32.6988 38.3508 32.7327L37.7091 33.6815L37.15 32.6818C37.1282 32.6454 37.0941 32.6163 37.0528 32.6066L35.9493 32.2911L36.7295 31.4516C36.7587 31.42 36.7733 31.3788 36.7733 31.3351L36.732 30.1898L37.7723 30.6703C37.8112 30.6872 37.855 30.6897 37.8963 30.6751L38.9731 30.2845L38.837 31.4225C38.8321 31.4637 38.8443 31.5074 38.871 31.5414L39.5759 32.444L38.4529 32.6648Z" fill="#3C3C3B"/>
<path d="M32.4516 32.4101C32.4176 32.364 32.3641 32.3397 32.3082 32.3446L31.4259 32.4125L30.7526 31.8399C30.7088 31.8035 30.6529 31.7914 30.597 31.8083C30.5435 31.8253 30.5022 31.869 30.4901 31.9248L30.281 32.7838L29.5275 33.2472C29.4789 33.2763 29.4497 33.3297 29.4497 33.3855C29.4497 33.4413 29.4789 33.4947 29.5275 33.5238L30.281 33.9873L30.4901 34.8462C30.5022 34.9021 30.5435 34.9457 30.597 34.9627C30.614 34.9676 30.631 34.97 30.648 34.97C30.6869 34.97 30.7234 34.9579 30.7526 34.9312L31.4259 34.3585L32.3082 34.4265C32.3641 34.4338 32.4176 34.4046 32.4516 34.361C32.4857 34.3149 32.493 34.2566 32.4711 34.2032L32.1332 33.3855L32.4711 32.5678C32.4905 32.5144 32.4857 32.4562 32.4516 32.4101ZM31.8075 33.4438L32.07 34.0795L31.3821 34.0261C31.3408 34.0188 31.297 34.0358 31.2654 34.0649L30.7404 34.509L30.5776 33.8417C30.5678 33.8004 30.5411 33.7641 30.5046 33.7422L29.9188 33.3807L30.5046 33.0216C30.5411 32.9997 30.5678 32.9633 30.5776 32.9221L30.7404 32.2524L31.2654 32.6988C31.297 32.7255 31.3408 32.7401 31.3821 32.7377L32.07 32.6843L31.8075 33.32C31.7929 33.3613 31.7929 33.4049 31.8075 33.4438Z" fill="#3C3C3B"/>
<path d="M25.7986 37.1538L25.7305 36.1372C25.7257 36.0813 25.6941 36.0304 25.6455 36.0037C25.5969 35.977 25.5361 35.9794 25.4875 36.0086L24.6076 36.5278L23.6158 36.2779C23.5624 36.2633 23.504 36.2803 23.4627 36.3191C23.4214 36.358 23.4044 36.4162 23.4165 36.4696L23.6401 37.4644L23.0957 38.3282C23.0665 38.3768 23.0616 38.435 23.0884 38.486C23.1127 38.5369 23.1613 38.5709 23.2172 38.5757L24.2357 38.6728L24.8895 39.4565C24.9211 39.4929 24.9649 39.5148 25.0135 39.5148C25.0208 39.5148 25.0281 39.5148 25.0354 39.5123C25.0913 39.5051 25.1375 39.4687 25.1618 39.4153L25.5677 38.4787L26.5157 38.1001C26.5667 38.0783 26.6056 38.0322 26.6153 37.9788C26.625 37.923 26.6056 37.8672 26.5619 37.8308L25.7986 37.1538ZM25.3878 38.2045C25.3489 38.2215 25.3173 38.2506 25.3003 38.2894L24.9722 39.0465L24.4423 38.4132C24.4155 38.3792 24.3766 38.3598 24.3329 38.3549L23.5113 38.2773L23.9513 37.5809C23.9731 37.5445 23.9804 37.5008 23.9731 37.4596L23.7933 36.654L24.593 36.8554C24.6343 36.8675 24.678 36.8602 24.7145 36.8384L25.4243 36.4186L25.4802 37.2412C25.4826 37.2849 25.5021 37.3237 25.5337 37.3528L26.1535 37.8988L25.3878 38.2045Z" fill="#3C3C3B"/>
<defs>
<linearGradient id="paint0_linear_895_6762" x1="0.129671" y1="15.1199" x2="31.7971" y2="8.32799" gradientUnits="userSpaceOnUse">
<stop stop-color="#F648B8"/>
<stop offset="1" stop-color="#835DFD"/>
</linearGradient>
<linearGradient id="paint1_linear_895_6762" x1="-1.64084" y1="20.1354" x2="42.3911" y2="7.68012" gradientUnits="userSpaceOnUse">
<stop stop-color="#F648B8"/>
<stop offset="1" stop-color="#835DFD"/>
</linearGradient>
<linearGradient id="paint2_linear_895_6762" x1="-6.80089" y1="20.0454" x2="42.8069" y2="9.56518" gradientUnits="userSpaceOnUse">
<stop stop-color="#F648B8"/>
<stop offset="1" stop-color="#835DFD"/>
</linearGradient>
</defs>
</svg>
